<?xml version="1.0" encoding="UTF-8"?>
<svg width="752pt" height="752pt" version="1.1" viewBox="0 0 752 752" xmlns="http://www.w3.org/2000/svg">
 <g>
  <path d="m572.09 416.7c-9.3828-9.3789-20.766-16.512-33.301-20.867v-153.02c0-11.777-4.6758-23.07-13.004-31.395-8.3242-8.3281-19.617-13.004-31.391-13.004h-295.99c-11.777 0-23.07 4.6758-31.395 13.004-8.3281 8.3242-13.004 19.617-13.004 31.395v207.19c-0.019531 6.0156 1.2422 11.969 3.6992 17.461v0.89062c3.543 7.8047 9.2734 14.422 16.496 19.043 7.2227 4.6211 15.629 7.0547 24.203 7.0039h223.32c3.6172 21.547 15.051 41.008 32.113 54.656 17.062 13.645 38.562 20.523 60.379 19.312 21.816-1.2109 42.422-10.422 57.871-25.871 16.719-16.664 26.117-39.297 26.117-62.898 0-23.605-9.3984-46.238-26.117-62.898zm-113.81 92.496c-6.6797-11.293-9.4141-24.484-7.7812-37.504 1.6328-13.02 7.5469-25.129 16.809-34.422 11.184-10.934 26.242-17 41.883-16.871 4.082 0.027343 8.1484 0.47266 12.137 1.332 6.3711 1.2695 12.477 3.625 18.055 6.957zm-100.93-113.96-59.199-73.996h0.003906c-2.875-2.9336-6.8438-4.543-10.953-4.4375-4.3516-0.082032-8.5195 1.7578-11.395 5.0312l-92.199 104.34v-183.36c0-3.9258 1.5586-7.6914 4.3359-10.465 2.7734-2.7773 6.5391-4.3359 10.465-4.3359h295.99c3.9219 0 7.6875 1.5586 10.465 4.3359 2.7734 2.7734 4.332 6.5391 4.332 10.465v147.99c-9.0391-0.015625-18.027 1.3828-26.637 4.1445l-52.539-44.398c-2.6797-2.293-6.0938-3.5547-9.6211-3.5547-3.5273 0-6.9375 1.2617-9.6172 3.5547zm193.72 125.8h0.003906c-9.3086 9.2383-21.426 15.125-34.445 16.734-13.02 1.6055-26.203-1.1562-37.48-7.8555l80.953-79.914c6.5703 11.246 9.2461 24.348 7.6133 37.27-1.6328 12.926-7.4805 24.949-16.641 34.211z"/>
  <path d="m405.6 287.2c0 16.348-13.254 29.602-29.602 29.602-16.344 0-29.598-13.254-29.598-29.602 0-16.344 13.254-29.598 29.598-29.598 16.348 0 29.602 13.254 29.602 29.598"/>
 </g>
</svg>
